<svg xmlns="http://www.w3.org/2000/svg" viewBox="0 0 240 60" role="img" aria-label="Eco Yacht Surveyors">
  <rect width="60" height="60" rx="14" fill="#132335"/>
  <path d="M30 14c-7 0-13 4.5-13 12 0 3 1 5.5 2.5 7.5-1.5.5-3 1.5-4 3 2.5-.5 4.5-.5 6.5 0 2.2 2.2 5.2 3.5 8.5 3.5s6.3-1.3 8.5-3.5c2-.5 4-.5 6.5 0-1-1.5-2.5-2.5-4-3 1.5-2 2.5-4.5 2.5-7.5 0-7.5-6-12-13-12z" fill="#dfc398"/>
  <text x="72" y="30" font-family="Georgia, serif" font-size="19" font-weight="600" fill="#132335">Eco Yacht Surveyors</text>
  <text x="72" y="46" font-family="Inter, Arial, sans-serif" font-size="8.5" letter-spacing="2.5" fill="#7c8a9e">NEWPORT BEACH · WORLDWIDE</text>
</svg>
